<svg xmlns="http://www.w3.org/2000/svg" stroke="#fff" class="vibrate-3" viewBox="0 0 100 125">
  <path d="M37.923 81.172l-6.096-.191 6.123 6.73.668-.607c.029-.231.118-.509.29-.918.039-.091.088-.202.146-.33.391-.864 1.205-2.661.619-3.732-.273-.499-.861-.819-1.75-.952zM39.617 92.938l1.421-.003-3.942-4.508.096 1.79z"/>
  <path stroke-width=".99997" d="M37.93 94.041l-1.992-2.237.677-.603 1.993 2.237z"/>
  <path d="M50.786 79.762a.373.373 0 0 0-.374.335.38.38 0 0 0 .079.278.387.387 0 0 0 .301.137.366.366 0 0 0 .37-.329.375.375 0 0 0-.08-.278.375.375 0 0 0-.296-.143zM21.425 75.707a.713.713 0 0 0-.712.71c0 .392.318.711.709.712l5.448.009-1.294-1.423-4.151-.008z"/>
  <path d="M29.873 74.911l-8.449-.015c-.837 0-1.521.681-1.522 1.519a1.525 1.525 0 0 0 1.519 1.525l8.447.014h.003c.838 0 1.521-.682 1.522-1.519a1.524 1.524 0 0 0-1.52-1.524zm-8.451 2.488a.982.982 0 0 1 .004-1.962l4.27.007 1.788 1.965-6.062-.01zm8.448.015h-.002l-1.653-.003-1.788-1.966 3.444.006a.98.98 0 0 1-.001 1.963zM44.565 79.293a2.309 2.309 0 0 0 .002 4.614 2.308 2.308 0 0 0-.002-4.614z"/>
  <path d="M29.871 75.723l-2.831-.006 1.294 1.424 1.534.002h.001a.71.71 0 0 0 .002-1.42z"/>
  <path d="M47.714 79.792a3.092 3.092 0 0 1 3.07-2.745h.046l-.648-6.035c-.121-1.12-2.392-4.133-3.895-6.125-.235-.311-.469-.621-.702-.934-.64-.856-1.43-1.765-1.738-2.809-.281-.951-.168-2.005.124-2.938l.006-.021-10.501-13.181a2.103 2.103 0 0 1 .334-2.951l1.514-1.206c.37-.294.833-.457 1.307-.457.645 0 1.244.288 1.644.791l3.95 4.958.283-.225-4.344-5.453a1.883 1.883 0 0 0-1.482-.713c-.432 0-.84.143-1.178.412l-2.363 1.882a1.895 1.895 0 0 0-.301 2.66l10.483 13.159.047.061c.088.723.058 1.475-.024 2.177-.07.608-.188 1.206-.342 1.798l-.033.12a13.902 13.902 0 0 1-.368 1.129c-.143.38-.304.752-.483 1.116a13.815 13.815 0 0 1-2.392 3.404 14.83 14.83 0 0 1-2.148 1.855l-.015.011-.031.022c-.1.07-.202.142-.305.211l-.016.012-.159.107-.167.108-.024.017c-.102.065-.205.131-.31.195l-.033.021-.029.018c-.318.195-.644.382-.974.558-.607.324-1.229.618-1.865.882a23.63 23.63 0 0 1-1.792.664c-.544.179-1.096.331-1.646.489-.542.155-1.089.343-1.657.361-.603.021-1.207.025-1.81.037h-.018c-2.523.048-7.027.134-10.016.261.207.171.396.363.564.576a3.89 3.89 0 0 1 .829 2.881 3.89 3.89 0 0 1-1.274 2.474l21.19.667.016.001.015.001c1.259.184 2.125.69 2.572 1.508.846 1.544-.118 3.674-.582 4.697a8.98 8.98 0 0 0-.135.304c-.138.329-.228.553-.22.653.005.067.088.158.259.343l.126.137c.661.726 2.861 2.579 3.626 3.195.113.09.207.137.28.137.141 0 .328-.179.556-.412.07-.071.138-.14.206-.202.282-.317 2.336-4.297 4.125-7.896a3.062 3.062 0 0 1-1.152-2.767zM29.87 78.226h-.003l-8.447-.016a1.796 1.796 0 0 1-1.79-1.795 1.796 1.796 0 0 1 1.793-1.789l8.45.014c.478.001.928.189 1.266.528a1.794 1.794 0 0 1-1.269 3.058zm7.595.468a11.61 11.61 0 0 1-1.625-.106c-1.009-.143-1.835-.667-2.327-1.473-.404-.663-.536-1.463-.336-2.038.418-1.201 1.909-1.875 1.924-1.882 2.589-1.148 5.557-4.292 6.804-5.856.555-.695.841-1.327 1.05-1.556.299-.329.715-.596 1.194-.596.29 0 .717.103 1.104.589l4.229 5.309c.346.435.715 1.562-.355 2.732-2.951 3.599-8.126 4.877-11.662 4.877zm9.66 3.196a2.555 2.555 0 0 1-.954 1.726 2.586 2.586 0 0 1-1.604.562c-.79 0-1.525-.354-2.017-.971a2.58 2.58 0 0 1 .41-3.622 2.594 2.594 0 0 1 1.605-.561 2.568 2.568 0 0 1 2.56 2.866z"/>
  <path d="M17.028 76.832a2.817 2.817 0 0 0-.601-2.087c-.448-.562-1.112-.944-1.979-1.031-.771-.077-1.585.273-2.007.581-.612.446-.966 1.146-1.051 1.899a2.82 2.82 0 0 0 .6 2.086 2.834 2.834 0 0 0 2.061 1.06l.227.007a2.804 2.804 0 0 0 1.698-.615 2.815 2.815 0 0 0 1.052-1.9zm-1.273-.144a1.556 1.556 0 1 1-2.515-1.391c.274-.218.618-.338.968-.338.477 0 .92.213 1.217.586.26.323.376.73.33 1.143zM49.273 71.254l-4.23-5.31c-.32-.401-.662-.485-.893-.485-.437 0-.821.283-1.08.606-.14.177-.542.918-.871 1.331-1.248 1.564-4.299 4.854-6.988 6.047-.388.172-1.464.818-1.779 1.723-.174.502-.052 1.212.312 1.809.448.735 1.206 1.214 2.133 1.347.479.068 1.013.103 1.587.103 3.479 0 8.57-1.256 11.46-4.783.954-1.038.645-2.017.349-2.388zM32.553 41.31l2.364-1.883c.116-.092.241-.177.374-.252l-.464-.582-.189-.238-2.801-3.517-3.011 2.399 3.449 4.328c.087-.092.181-.177.278-.255zM48.255 40.685l1.312.237c-.562-1.312-1.764-3.377-4.216-5.224l-.042 1.322c1.585 1.29 2.47 2.679 2.946 3.665zM45.917 39.106a10.445 10.445 0 0 0-1.125-1.11l-4.41 3.514.978 1.228 4.557-3.632zM42.669 44.382l.159.199 4.41-3.513c-.039-.076-.078-.154-.12-.23l-4.449 3.544z"/>
  <path d="M14.209 75.229c-.289 0-.573.1-.8.28a1.275 1.275 0 0 0-.476.859c-.038.341.058.677.272.944a1.288 1.288 0 0 0 2.281-.654 1.278 1.278 0 0 0-.272-.945 1.276 1.276 0 0 0-1.005-.484zm.464 1.866a.737.737 0 0 1-.458.155.749.749 0 0 1-.587-.274.74.74 0 0 1 .581-1.206.741.741 0 0 1 .739.827.736.736 0 0 1-.275.498zM43.563 46.455l-2.881 2.295 2.948-1.831zM36.63 41.472c-.232 0-.451.076-.633.221l-1.514 1.206a1.02 1.02 0 0 0-.162 1.431l1.972 2.476 3.106-2.475-1.972-2.476a1.013 1.013 0 0 0-.797-.383zM15.385 72.479l-.126-2.09-.676.04.126 2.094c.198-.014.422-.029.676-.044zM36.151 50.61l.006-.005-2.753-3.457a1.316 1.316 0 0 0-.13.37c-.079.396.009.792.242 1.083l2.001 2.513.634-.504z"/>
  <path d="M14.209 76.04a.465.465 0 0 0-.294.104.47.47 0 0 0-.075.664.481.481 0 0 0 .376.172.46.46 0 0 0 .464-.413.47.47 0 0 0-.471-.527zM18.458 72.35l-2.076-1.3.083 1.375c.576-.026 1.243-.051 1.993-.075zM26.163 72.325l-7.942-8.722-1.204 1.094 6.986 7.671 2.16-.043zM15.24 80.56l.676 11.164.676-.04-.672-11.104zM78.997 12.752a13.776 13.776 0 0 0-.937-1.062l-8.496 6.492c.386.391.748.8 1.083 1.223l8.35-6.653zM85.964 7.222l-7.008 3.839c.328.344.636.699.919 1.058l6.089-4.897zM71.915 21.31l6.728-5.585-6.815 5.429c.028.053.058.105.087.156zM68.671 18.817l-.095-.032-.137-.046a4.872 4.872 0 0 0-1.305-.232c1.014.669 1.713 1.476 2.302 2.206a10.297 10.297 0 0 1 1.675 2.985c.087-.446.139-.934.104-1.398l-.062-.12a12.968 12.968 0 0 0-2.482-3.363z"/>
  <path d="M51.824 77.634s1.419-8.191 1.479-8.526c.06-.333-.104-.607-.104-.607L40.092 50.265l4.491-2.79-.344-2.39-.855.681-.188-.235 4.915-3.915 2.741.495s-.887-4.489-6.19-7.77l-.094 3.002-4.83 3.847-.866-1.087a2.709 2.709 0 0 0-2.618-.971l-1.722-2.162-2.243-2.815a.54.54 0 0 0-.76-.085l-3.434 2.735a.541.541 0 0 0-.086.76l3.938 4.943.015-.012a2.703 2.703 0 0 0 .317 2.859l.86 1.08a1.945 1.945 0 0 0-.585 1.073 2.129 2.129 0 0 0 .403 1.748l2.17 2.724c-3.867 3.08-13.012 10.365-13.128 10.459a1.35 1.35 0 0 0-.215 1.899l6.536 8.204-.913.018-8.691-9.555a.542.542 0 0 0-.765-.036l-1.604 1.459a.543.543 0 0 0-.036.764l6.782 7.456c-.877.019-1.79.04-2.687.064l-7.755-4.854-.287.459 2.312 1.447-.876.054.193 3.201c-.042.006-.084.012-.119.019v.002a3.661 3.661 0 0 0-1.862.769 3.627 3.627 0 0 0-1.352 2.442 3.632 3.632 0 0 0 .771 2.684 3.621 3.621 0 0 0 2.63 1.362v.002l.061.002c.055.002.109.009.164.009l.056-.002.091.002.746 12.32 2.295-.139-.733-12.108 13.778.432 5.763 6.336.177 3.318-1.474 1.3 2.9 3.233 1.495-1.318 3.344-.008-4.392-5.005.038-.029.76-.691c.075.107.172.221.293.352l.123.133c.701.769 2.912 2.631 3.715 3.278.286.23.547.318.783.318.496 0 .878-.39 1.141-.656.063-.064.125-.127.186-.183.457-.425 3.688-6.904 4.385-8.31.345.146.719.229 1.106.229.635 0 1.259-.219 1.757-.615.59-.47.961-1.142 1.046-1.891a2.804 2.804 0 0 0-.598-2.076 2.786 2.786 0 0 0-1.243-.896zm-6.972-19.863l-.104.082-5.687-7.14.497-.309 5.294 7.367zM43.764 45.95l.159 1.105-5.201 3.231-.156-.196 5.198-4.14zm-7.514 1.236l-2.141-2.688a1.29 1.29 0 0 1 .205-1.811l1.514-1.206a1.29 1.29 0 0 1 1.811.205l2.141 2.687-3.53 2.813zm6.535-2.225l-.496-.623 4.91-3.912c.15.257.274.498.376.718l-4.79 3.817zm2.313-9.783c3.133 2.203 4.425 4.812 4.902 6.097l-1.93-.349c-.489-1.054-1.393-2.472-3.035-3.78l.063-1.968zm-.303 2.468a10.788 10.788 0 0 1 1.508 1.497l-4.987 3.973L40 41.466l4.795-3.82zm-16.35-.452l3.434-2.736 2.97 3.728.862 1.082a2.708 2.708 0 0 0-.625.37l-2.363 1.883c-.175.14-.326.299-.457.469l-3.821-4.796zm4.86 11.577a1.587 1.587 0 0 1-.296-1.305c.062-.311.203-.578.392-.756l3.137 3.938c-.213.169-.581.461-1.063.846l-2.17-2.723zM16.635 64.68l1.604-1.458 8.525 9.362c-.814.016-1.806.034-2.878.057l-7.251-7.961zm2.72 7.913c-1.143.033-2.228.071-3.144.115l-.131-2.166 3.275 2.051zm-3.964-2.483l.127.079.154 2.545c-.473.025-.884.052-1.215.08l-.16-2.639 1.094-.065zm-1.12 9.508l-.233-.008a3.087 3.087 0 0 1-2.257-1.162 3.085 3.085 0 0 1-.657-2.284 3.085 3.085 0 0 1 1.151-2.081c1.029-.793 2.219-.661 2.219-.661a3.082 3.082 0 0 1 2.146 1.155c.518.648.751 1.46.658 2.285s-.502 1.563-1.152 2.081a3.085 3.085 0 0 1-1.875.675zm2.607 12.318l-1.216.074-.71-11.73 1.223.039.703 11.617zm21.033 2.485l-2.352-2.642 1.082-.962 2.352 2.64-1.082.964zm3.722-1.217l-2.138.005-2.568-2.883-.143-2.667 4.849 5.545zm-2.476-6.915c-.177.423-.269.71-.279.943l-.946.86-6.734-7.403 6.749.212c.985.146 1.646.513 1.963 1.092.651 1.189-.2 3.069-.609 3.974-.058.126-.107.234-.144.322zm5.771 4.357a7.53 7.53 0 0 0-.203.2c-.286.291-.501.493-.75.493-.135 0-.279-.06-.45-.197-.768-.618-2.983-2.484-3.654-3.222l-.126-.137c-.417-.449-.433-.466-.09-1.284.036-.085.083-.189.137-.311.446-.983 1.373-3.03.592-4.456-.405-.739-1.204-1.2-2.375-1.369l-21.98-.691a3.627 3.627 0 0 0 1.805-2.749 3.627 3.627 0 0 0-.771-2.684 3.657 3.657 0 0 0-1.197-.976c2.929-.149 8.057-.247 10.874-.3l.903-.018c.281-.005.562-.007.841-.017a3.19 3.19 0 0 0 .607-.091 32.966 32.966 0 0 0 2.168-.581 24.561 24.561 0 0 0 2.787-1.04 19.372 19.372 0 0 0 2.302-1.205l.062-.038c.104-.063.205-.128.305-.192.063-.041.126-.081.188-.123l.174-.116c.101-.069.202-.139.301-.211.015-.01.029-.021.044-.03.417-.298.822-.62 1.208-.956a14.069 14.069 0 0 0 1.926-2.053 12.598 12.598 0 0 0 1.51-2.554c.424-.956.729-1.962.914-2.991.16-.895.24-1.813.13-2.719L32.626 44.871a2.166 2.166 0 0 1 .344-3.04l2.364-1.882a2.161 2.161 0 0 1 3.04.343l4.512 5.665-.706.562-4.118-5.169a1.827 1.827 0 0 0-1.433-.689c-.399 0-.802.13-1.138.397l-1.514 1.206a1.832 1.832 0 0 0-.291 2.571L44.28 58.133l-.011.031a5.533 5.533 0 0 0-.302 1.55 3.898 3.898 0 0 0 .482 2.134c.572 1.021 1.351 1.945 2.054 2.876 1.612 2.138 3.819 5.064 3.947 6.26l.683 6.356a2.835 2.835 0 0 0-2.107.592 2.827 2.827 0 0 0-.449 3.966c.182.228.395.42.628.578-1.484 2.99-3.948 7.834-4.277 8.17zm8.125-10.25a2.264 2.264 0 0 1-.846 1.528 2.255 2.255 0 0 1-1.419.498c-.7 0-1.351-.314-1.786-.86a2.285 2.285 0 0 1 .362-3.206c.409-.326.9-.497 1.42-.497.7 0 1.351.313 1.786.859.38.476.551 1.072.483 1.678zM57.226 25.097c-.792.632-1.631 1.302-2.516 2.011 1.801 1.259 3.241 2.768 4.289 4.494l2.545-2.015c-.744-1.257-2.073-2.982-4.318-4.49zM65.26 18.75c-.79.606-2.003 1.555-3.608 2.826 1.81 1.265 3.255 2.782 4.304 4.519l3.741-2.962a9.206 9.206 0 0 0-1.101-1.741c-.803-.994-1.72-2.014-3.336-2.642zM53.826 27.815a4361.911 4361.911 0 0 0-7.585 6.091c1.762 1.25 3.181 2.745 4.227 4.449l7.664-6.066c-.744-1.252-2.07-2.97-4.306-4.474z"/>
  <path d="M89.34 5.435a1.312 1.312 0 0 0-.294-.369c-.242-.152-.514.002-.595.056l-10.1 5.533-9.715 7.418c-1.483-.451-3.237-.141-3.313-.127 0 0-.082.018-.131.04-.902.683-4.505 3.525-4.505 3.525-1.07.848-14.804 11.85-15.745 12.606 5.304 3.281 6.191 7.771 6.191 7.771l20.35-16.209c.031-.071.725-1.711.617-3.258l9.372-7.782 7.681-8.636c.071-.068.282-.298.187-.568zm-10.785 5.537l9.965-5.459-8.69 6.99a14.388 14.388 0 0 0-1.31-1.502l.035-.029zm-.47.359c.471.467.901.957 1.289 1.467l-8.772 6.989a14.738 14.738 0 0 0-1.448-1.631l8.931-6.825zM50.394 38.758c-.85-1.458-2.268-3.25-4.604-4.836a4195.13 4195.13 0 0 1 8.021-6.442c2.423 1.586 3.851 3.428 4.671 4.875l-8.088 6.403zm8.53-6.752c-.84-1.459-2.271-3.279-4.669-4.881 1.049-.84 2.034-1.627 2.955-2.362 2.434 1.591 3.864 3.441 4.685 4.89l-2.971 2.353zm3.412-2.702c-.84-1.463-2.272-3.29-4.68-4.897 1.137-.907 2.169-1.729 3.091-2.46 2.44 1.596 3.871 3.451 4.691 4.902l-3.102 2.455zm3.543-2.804c-.838-1.464-2.271-3.295-4.684-4.907a335.098 335.098 0 0 1 4.019-3.148c1.763.645 2.741 1.724 3.592 2.778a9.513 9.513 0 0 1 1.228 1.989L65.879 26.5zm5.255-1.803a10.057 10.057 0 0 0-1.907-3.814c-.756-.937-1.648-1.936-3.1-2.638.177-.012.375-.02.587-.02.532 0 1.148.051 1.708.223.035.011.352.091.375.114a13.3 13.3 0 0 1 2.598 3.495s.092.193.101.438c.026.812-.189 1.651-.362 2.202zm.698-2.967a12.583 12.583 0 0 0-.356-.642l8.77-6.986c.084.146.165.292.244.44l-8.658 7.188zm9.204-7.642l-.122.102a12.346 12.346 0 0 0-.262-.46l7.938-8.256.015-.008c.019.002.065.01.044.057l-7.613 8.565z"/>
  <path d="M60.762 22.281a927.81 927.81 0 0 0-2.65 2.109c1.808 1.263 3.252 2.777 4.3 4.51l2.676-2.118c-.746-1.26-2.076-2.99-4.326-4.501zM50.786 78.95a1.19 1.19 0 0 0 .001 2.378 1.187 1.187 0 0 0 .927-1.93 1.177 1.177 0 0 0-.928-.448zm.404 1.696a.642.642 0 0 1-.399.136.658.658 0 0 1-.513-.239.65.65 0 0 1 1.014-.808.647.647 0 0 1-.102.911z"/>
  <path d="M50.784 78.128c-.458 0-.892.152-1.251.438a1.996 1.996 0 0 0-.744 1.347 2.006 2.006 0 0 0 1.999 2.237c.458 0 .891-.151 1.251-.438.42-.334.686-.812.746-1.347a1.997 1.997 0 0 0-.427-1.479 2 2 0 0 0-1.574-.758zm1.451 2.176a1.448 1.448 0 0 1-.54.978 1.462 1.462 0 0 1-2.051-.233 1.463 1.463 0 0 1 .232-2.052 1.47 1.47 0 0 1 .909-.317c.447 0 .863.201 1.141.55.244.305.353.686.309 1.074z"/>
</svg>
